# xmcd
#
# Track frame offsets:
#	150
#	18077
#	36816
#	51181
#	82124
#	104709
#	123091
#	138288
#	157947
#	177077
#	200450
#	226939
#	253126
#	287957
#	305379
#
# Disc length: 4366 seconds
#
# Revision: 0
# Processed by: cddbd v1.5PL3 Copyright (c) Steve Scherf et al.
# Submitted via: audiograbber 1.82.01
#
DISCID=c7110c0f
DTITLE=Romantic Collection - Balkans
DYEAR=1900
DGENRE=
TTITLE0=G. Bregovic - Moonlight
TTITLE1=Le mystere des volx bulgares - Bulgarian Rhapsody
TTITLE2=Glykeria - Tik tik tak
TTITLE3=N. Parov - Trace Danubius
TTITLE4=E. Custurica - Djindji rindji bubamara
TTITLE5=Kocani - Djelem, djelem
TTITLE6=Y. Paradakis - Never on sunday
TTITLE7=Merita Halili - Ku'tka
TTITLE8=Sofia Sound Machine - Voyage
TTITLE9=G. Bregovic - Ausencia
TTITLE10=Kilim - Mayo woman
TTITLE11=No smoking band - Lubenica
TTITLE12=N. Parov - Balkan's anonym
TTITLE13=Serbians - Borino oro
TTITLE14=G. Bregovic - Ederlezi
EXTD=
EXTT0=
EXTT1=
EXTT2=
EXTT3=
EXTT4=
EXTT5=
EXTT6=
EXTT7=
EXTT8=
EXTT9=
EXTT10=
EXTT11=
EXTT12=
EXTT13=
EXTT14=
PLAYORDER=
